STARTFONT 2.1
COMMENT
COMMENT  Copyright (c) 2008, Your Name Here
COMMENT
COMMENT  License to copy and distribute for both commercial and
COMMENT  non-commercial use is herby granted, provided this notice
COMMENT  is preserved.
COMMENT
COMMENT  yourEmail@your.Domain
COMMENT  http://web.server/YourWebPageIfYouHaveOne/
COMMENT  Whatever else you want to put here
COMMENT
COMMENT  Produced with bdfedit, a tcl/tk font editing program
COMMENT  written by Thomas A. Fine
FONT -Gohu-Gohufont-Medium-R-Normal--28-100-100-100-C-80-ISO8859-1
SIZE 14 100 100
FONTBOUNDINGBOX 16 28 0 -6
STARTPROPERTIES 11
FOUNDRY "Fine"
FAMILY_NAME ""
WEIGHT_NAME "Medium"
SLANT "R"
SETWIDTH_NAME "Normal"
SPACING "c"
CHARSET_REGISTRY "ISO-8859"
CHARSET_ENCODING "1"
COPYRIGHT "Designer of this font retains full rights under the law"
FONT_ASCENT  22
FONT_DESCENT 6
ENDPROPERTIES
CHARS 191
STARTCHAR space
ENCODING 32
SWIDTH 1142 0
DWIDTH 16 0
BBX 0 0 0 0
BITMAP
ENDCHAR
STARTCHAR exclam
ENCODING 33
SWIDTH 1142 0
DWIDTH 16 0
BBX 2 20 6 0
BITMAP
c0
c0
c0
c0
c0
c0
c0
c0
c0
c0
c0
c0
c0
c0
00
00
c0
c0
c0
c0
ENDCHAR
STARTCHAR quotedbl
ENCODING 34
SWIDTH 1142 0
DWIDTH 16 0
BBX 8 6 4 14
BITMAP
c3
c3
c3
c3
c3
c3
ENDCHAR
STARTCHAR numbersign
ENCODING 35
SWIDTH 1142 0
DWIDTH 16 0
BBX 14 20 0 0
BITMAP
0cc0
0cc0
0cc0
0cc0
0cc0
0cc0
fffc
fffc
0cc0
0cc0
0cc0
0cc0
fffc
fffc
0cc0
0cc0
0cc0
0cc0
0cc0
0cc0
ENDCHAR
STARTCHAR dollar
ENCODING 36
SWIDTH 1142 0
DWIDTH 16 0
BBX 14 26 0 -4
BITMAP
0300
0300
0300
0300
3ff0
3ff0
c30c
c30c
c300
c300
c300
c300
3ff0
3ff0
030c
030c
030c
030c
c30c
c30c
3ff0
3ff0
0300
0300
0300
0300
ENDCHAR
STARTCHAR percent
ENCODING 37
SWIDTH 1142 0
DWIDTH 16 0
BBX 14 20 0 -2
BITMAP
3c30
3c30
c330
c330
3cc0
3cc0
00c0
00c0
0300
0300
0300
0300
0c00
0c00
0cf0
0cf0
330c
330c
30f0
30f0
ENDCHAR
STARTCHAR ampersand
ENCODING 38
SWIDTH 1142 0
DWIDTH 16 0
BBX 12 20 2 0
BITMAP
0f00
0f00
30c0
30c0
30c0
30c0
0f00
0f00
3c00
3c00
c330
c330
c0c0
c0c0
c0c0
c0c0
c0c0
c0c0
3f30
3f30
ENDCHAR
STARTCHAR quotesingle
ENCODING 39
SWIDTH 1142 0
DWIDTH 16 0
BBX 2 8 6 12
BITMAP
c0
c0
c0
c0
c0
c0
c0
c0
ENDCHAR
STARTCHAR parenleft
ENCODING 40
SWIDTH 1142 0
DWIDTH 16 0
BBX 8 24 2 -4
BITMAP
03
03
0c
0c
30
30
30
30
c0
c0
c0
c0
c0
c0
c0
c0
30
30
30
30
0c
0c
03
03
ENDCHAR
STARTCHAR parenright
ENCODING 41
SWIDTH 1142 0
DWIDTH 16 0
BBX 8 24 4 -4
BITMAP
c0
c0
30
30
0c
0c
0c
0c
03
03
03
03
03
03
03
03
0c
0c
0c
0c
30
30
c0
c0
ENDCHAR
STARTCHAR asterisk
ENCODING 42
SWIDTH 1142 0
DWIDTH 16 0
BBX 14 14 0 2
BITMAP
0300
0300
c30c
c30c
3330
3330
0fc0
0fc0
3330
3330
c30c
c30c
0300
0300
ENDCHAR
STARTCHAR plus
ENCODING 43
SWIDTH 1142 0
DWIDTH 16 0
BBX 14 14 0 2
BITMAP
0300
0300
0300
0300
0300
0300
fffc
fffc
0300
0300
0300
0300
0300
0300
ENDCHAR
STARTCHAR comma
ENCODING 44
SWIDTH 1142 0
DWIDTH 16 0
BBX 4 8 4 -4
BITMAP
f0
f0
f0
f0
30
30
c0
c0
ENDCHAR
STARTCHAR hyphen
ENCODING 45
SWIDTH 1142 0
DWIDTH 16 0
BBX 12 2 2 8
BITMAP
fff0
fff0
ENDCHAR
STARTCHAR period
ENCODING 46
SWIDTH 1142 0
DWIDTH 16 0
BBX 4 4 4 0
BITMAP
f0
f0
f0
f0
ENDCHAR
STARTCHAR slash
ENCODING 47
SWIDTH 1142 0
DWIDTH 16 0
BBX 12 24 2 -2
BITMAP
0010
0010
0020
0020
0040
0040
0080
0080
0100
0100
0200
0200
0400
0400
0800
0800
1000
1000
2000
2000
4000
4000
8000
8000
ENDCHAR
STARTCHAR zero
ENCODING 48
SWIDTH 1142 0
DWIDTH 16 0
BBX 12 18 2 0
BITMAP
3fc0
3fc0
c030
c030
c0f0
c0f0
c330
c330
cc30
cc30
f030
f030
c030
c030
c030
c030
3fc0
3fc0
ENDCHAR
STARTCHAR one
ENCODING 49
SWIDTH 1142 0
DWIDTH 16 0
BBX 8 18 2 0
BITMAP
03
03
0f
0f
33
33
c3
c3
03
03
03
03
03
03
03
03
03
03
ENDCHAR
STARTCHAR two
ENCODING 50
SWIDTH 1142 0
DWIDTH 16 0
BBX 12 18 2 0
BITMAP
3fc0
3fc0
c030
c030
c030
c030
00c0
00c0
0300
0300
0c00
0c00
3000
3000
c000
c000
fff0
fff0
ENDCHAR
STARTCHAR three
ENCODING 51
SWIDTH 1142 0
DWIDTH 16 0
BBX 12 18 2 0
BITMAP
3fc0
3fc0
c030
c030
0030
0030
0030
0030
0fc0
0fc0
0030
0030
0030
0030
c030
c030
3fc0
3fc0
ENDCHAR
STARTCHAR four
ENCODING 52
SWIDTH 1142 0
DWIDTH 16 0
BBX 12 18 2 0
BITMAP
00c0
00c0
03c0
03c0
0cc0
0cc0
30c0
30c0
c0c0
c0c0
fff0
fff0
00c0
00c0
00c0
00c0
00c0
00c0
ENDCHAR
STARTCHAR five
ENCODING 53
SWIDTH 1142 0
DWIDTH 16 0
BBX 12 18 2 0
BITMAP
fff0
fff0
c000
c000
c000
c000
ffc0
ffc0
0030
0030
0030
0030
0030
0030
c030
c030
3fc0
3fc0
ENDCHAR
STARTCHAR six
ENCODING 54
SWIDTH 1142 0
DWIDTH 16 0
BBX 12 18 2 0
BITMAP
3fc0
3fc0
c000
c000
c000
c000
ffc0
ffc0
c030
c030
c030
c030
c030
c030
c030
c030
3fc0
3fc0
ENDCHAR
STARTCHAR seven
ENCODING 55
SWIDTH 1142 0
DWIDTH 16 0
BBX 12 18 2 0
BITMAP
fff0
fff0
0030
0030
00c0
00c0
00c0
00c0
0300
0300
0300
0300
0c00
0c00
0c00
0c00
0c00
0c00
ENDCHAR
STARTCHAR eight
ENCODING 56
SWIDTH 1142 0
DWIDTH 16 0
BBX 12 18 2 0
BITMAP
3fc0
3fc0
c030
c030
c030
c030
c030
c030
3fc0
3fc0
c030
c030
c030
c030
c030
c030
3fc0
3fc0
ENDCHAR
STARTCHAR nine
ENCODING 57
SWIDTH 1142 0
DWIDTH 16 0
BBX 12 18 2 0
BITMAP
3fc0
3fc0
c030
c030
c030
c030
c030
c030
3ff0
3ff0
0030
0030
0030
0030
00c0
00c0
3f00
3f00
ENDCHAR
STARTCHAR colon
ENCODING 58
SWIDTH 1142 0
DWIDTH 16 0
BBX 4 14 6 0
BITMAP
f0
f0
f0
f0
00
00
00
00
00
00
f0
f0
f0
f0
ENDCHAR
STARTCHAR semicolon
ENCODING 59
SWIDTH 1142 0
DWIDTH 16 0
BBX 4 18 4 -4
BITMAP
f0
f0
f0
f0
00
00
00
00
00
00
f0
f0
f0
f0
30
30
c0
c0
ENDCHAR
STARTCHAR less
ENCODING 60
SWIDTH 1142 0
DWIDTH 16 0
BBX 10 18 2 0
BITMAP
00c0
00c0
0300
0300
0c00
0c00
3000
3000
c000
c000
3000
3000
0c00
0c00
0300
0300
00c0
00c0
ENDCHAR
STARTCHAR equal
ENCODING 61
SWIDTH 1142 0
DWIDTH 16 0
BBX 12 10 2 4
BITMAP
fff0
fff0
0000
0000
0000
0000
0000
0000
fff0
fff0
ENDCHAR
STARTCHAR greater
ENCODING 62
SWIDTH 1142 0
DWIDTH 16 0
BBX 10 18 2 0
BITMAP
c000
c000
3000
3000
0c00
0c00
0300
0300
00c0
00c0
0300
0300
0c00
0c00
3000
3000
c000
c000
ENDCHAR
STARTCHAR question
ENCODING 63
SWIDTH 1142 0
DWIDTH 16 0
BBX 12 20 2 0
BITMAP
3fc0
3fc0
c030
c030
0030
0030
0030
0030
00c0
00c0
0300
0300
0c00
0c00
0000
0000
0c00
0c00
0c00
0c00
ENDCHAR
STARTCHAR at
ENCODING 64
SWIDTH 1142 0
DWIDTH 16 0
BBX 14 20 0 0
BITMAP
3ff0
3ff0
c00c
c00c
c3fc
c3fc
cc0c
cc0c
cc0c
cc0c
cc0c
cc0c
cc3c
cc3c
c3cc
c3cc
c000
c000
3ffc
3ffc
ENDCHAR
STARTCHAR A
ENCODING 65
SWIDTH 1142 0
DWIDTH 16 0
BBX 12 20 2 0
BITMAP
3fc0
4020
8010
8010
8010
8010
8010
8010
8010
fff0
8010
8010
8010
8010
8010
8010
8010
8010
8010
8010
ENDCHAR
STARTCHAR B
ENCODING 66
SWIDTH 1142 0
DWIDTH 16 0
BBX 12 20 2 0
BITMAP
ffc0
8020
8010
8010
8010
8010
8010
8010
8010
ffe0
8000
8010
8010
8010
8010
8010
8010
8010
8020
ffc0
ENDCHAR
STARTCHAR C
ENCODING 67
SWIDTH 1142 0
DWIDTH 16 0
BBX 12 20 2 0
BITMAP
3fe0
4010
8000
8000
8000
8000
8000
8000
8000
8000
8000
8000
8000
8000
8000
8000
8000
8000
4010
3fe0
ENDCHAR
STARTCHAR D
ENCODING 68
SWIDTH 1142 0
DWIDTH 16 0
BBX 12 20 2 0
BITMAP
ff80
8040
8020
8010
8010
8010
8010
8010
8010
8010
8010
8010
8010
8010
8010
8010
8010
8020
8040
ff80
ENDCHAR
STARTCHAR E
ENCODING 69
SWIDTH 1142 0
DWIDTH 16 0
BBX 12 20 2 0
BITMAP
fff0
8000
8000
8000
8000
8000
8000
8000
8000
ff80
8000
8000
8000
8000
8000
8000
8000
8000
8000
fff0
ENDCHAR
STARTCHAR F
ENCODING 70
SWIDTH 1142 0
DWIDTH 16 0
BBX 12 18 2 0
BITMAP
fff0
fff0
c000
c000
c000
c000
c000
c000
ff00
ff00
c000
c000
c000
c000
c000
c000
c000
c000
ENDCHAR
STARTCHAR G
ENCODING 71
SWIDTH 1142 0
DWIDTH 16 0
BBX 12 18 2 0
BITMAP
3fc0
3fc0
c030
c030
c000
c000
c000
c000
c3f0
c3f0
c030
c030
c030
c030
c030
c030
3fc0
3fc0
ENDCHAR
STARTCHAR H
ENCODING 72
SWIDTH 1142 0
DWIDTH 16 0
BBX 12 18 2 0
BITMAP
c030
c030
c030
c030
c030
c030
c030
c030
fff0
fff0
c030
c030
c030
c030
c030
c030
c030
c030
ENDCHAR
STARTCHAR I
ENCODING 73
SWIDTH 1142 0
DWIDTH 16 0
BBX 6 18 4 0
BITMAP
fc
fc
30
30
30
30
30
30
30
30
30
30
30
30
30
30
fc
fc
ENDCHAR
STARTCHAR J
ENCODING 74
SWIDTH 1142 0
DWIDTH 16 0
BBX 12 18 2 0
BITMAP
0030
0030
0030
0030
0030
0030
0030
0030
0030
0030
0030
0030
c030
c030
c030
c030
3fc0
3fc0
ENDCHAR
STARTCHAR K
ENCODING 75
SWIDTH 1142 0
DWIDTH 16 0
BBX 12 18 2 0
BITMAP
c030
c030
c0c0
c0c0
c300
c300
cc00
cc00
f000
f000
cc00
cc00
c300
c300
c0c0
c0c0
c030
c030
ENDCHAR
STARTCHAR L
ENCODING 76
SWIDTH 1142 0
DWIDTH 16 0
BBX 12 18 2 0
BITMAP
c000
c000
c000
c000
c000
c000
c000
c000
c000
c000
c000
c000
c000
c000
c000
c000
fff0
fff0
ENDCHAR
STARTCHAR M
ENCODING 77
SWIDTH 1142 0
DWIDTH 16 0
BBX 14 18 0 0
BITMAP
c00c
c00c
f03c
f03c
cccc
cccc
c30c
c30c
c30c
c30c
c00c
c00c
c00c
c00c
c00c
c00c
c00c
c00c
ENDCHAR
STARTCHAR N
ENCODING 78
SWIDTH 1142 0
DWIDTH 16 0
BBX 12 18 2 0
BITMAP
c030
c030
f030
f030
f030
f030
cc30
cc30
cc30
cc30
c330
c330
c330
c330
c0f0
c0f0
c0f0
c0f0
ENDCHAR
STARTCHAR O
ENCODING 79
SWIDTH 1142 0
DWIDTH 16 0
BBX 12 18 2 0
BITMAP
3fc0
3fc0
c030
c030
c030
c030
c030
c030
c030
c030
c030
c030
c030
c030
c030
c030
3fc0
3fc0
ENDCHAR
STARTCHAR P
ENCODING 80
SWIDTH 1142 0
DWIDTH 16 0
BBX 12 18 2 0
BITMAP
ffc0
ffc0
c030
c030
c030
c030
c030
c030
ffc0
ffc0
c000
c000
c000
c000
c000
c000
c000
c000
ENDCHAR
STARTCHAR Q
ENCODING 81
SWIDTH 1142 0
DWIDTH 16 0
BBX 12 20 2 -2
BITMAP
3fc0
3fc0
c030
c030
c030
c030
c030
c030
c030
c030
c330
c330
c330
c330
c0c0
c0c0
3f30
3f30
0030
0030
ENDCHAR
STARTCHAR R
ENCODING 82
SWIDTH 1142 0
DWIDTH 16 0
BBX 12 18 2 0
BITMAP
ffc0
ffc0
c030
c030
c030
c030
c030
c030
ffc0
ffc0
c300
c300
c0c0
c0c0
c030
c030
c030
c030
ENDCHAR
STARTCHAR S
ENCODING 83
SWIDTH 1142 0
DWIDTH 16 0
BBX 12 18 2 0
BITMAP
3fc0
3fc0
c030
c030
c000
c000
c000
c000
3fc0
3fc0
0030
0030
0030
0030
c030
c030
3fc0
3fc0
ENDCHAR
STARTCHAR T
ENCODING 84
SWIDTH 1142 0
DWIDTH 16 0
BBX 14 18 0 0
BITMAP
fffc
fffc
0300
0300
0300
0300
0300
0300
0300
0300
0300
0300
0300
0300
0300
0300
0300
0300
ENDCHAR
STARTCHAR U
ENCODING 85
SWIDTH 1142 0
DWIDTH 16 0
BBX 12 18 2 0
BITMAP
c030
c030
c030
c030
c030
c030
c030
c030
c030
c030
c030
c030
c030
c030
c030
c030
3fc0
3fc0
ENDCHAR
STARTCHAR V
ENCODING 86
SWIDTH 1142 0
DWIDTH 16 0
BBX 12 18 2 0
BITMAP
c030
c030
c030
c030
c030
c030
c030
c030
30c0
30c0
30c0
30c0
30c0
30c0
0f00
0f00
0f00
0f00
ENDCHAR
STARTCHAR W
ENCODING 87
SWIDTH 1142 0
DWIDTH 16 0
BBX 14 18 0 0
BITMAP
c00c
c00c
c00c
c00c
c30c
c30c
c30c
c30c
c30c
c30c
cccc
cccc
3030
3030
3030
3030
3030
3030
ENDCHAR
STARTCHAR X
ENCODING 88
SWIDTH 1142 0
DWIDTH 16 0
BBX 12 18 2 0
BITMAP
c030
c030
c030
c030
30c0
30c0
30c0
30c0
0f00
0f00
30c0
30c0
30c0
30c0
c030
c030
c030
c030
ENDCHAR
STARTCHAR Y
ENCODING 89
SWIDTH 1142 0
DWIDTH 16 0
BBX 14 18 0 0
BITMAP
c00c
c00c
c00c
c00c
3030
3030
3030
3030
0cc0
0cc0
0300
0300
0300
0300
0300
0300
0300
0300
ENDCHAR
STARTCHAR Z
ENCODING 90
SWIDTH 1142 0
DWIDTH 16 0
BBX 12 18 2 0
BITMAP
fff0
fff0
0030
0030
00c0
00c0
0300
0300
0c00
0c00
3000
3000
c000
c000
c000
c000
fff0
fff0
ENDCHAR
STARTCHAR bracketleft
ENCODING 91
SWIDTH 1142 0
DWIDTH 16 0
BBX 6 22 6 -2
BITMAP
fc
fc
c0
c0
c0
c0
c0
c0
c0
c0
c0
c0
c0
c0
c0
c0
c0
c0
c0
c0
fc
fc
ENDCHAR
STARTCHAR backslash
ENCODING 92
SWIDTH 1142 0
DWIDTH 16 0
BBX 12 24 2 -2
BITMAP
c000
c000
c000
c000
3000
3000
3000
3000
0c00
0c00
0c00
0c00
0300
0300
0300
0300
00c0
00c0
00c0
00c0
0030
0030
0030
0030
ENDCHAR
STARTCHAR bracketright
ENCODING 93
SWIDTH 1142 0
DWIDTH 16 0
BBX 6 22 4 -2
BITMAP
fc
fc
0c
0c
0c
0c
0c
0c
0c
0c
0c
0c
0c
0c
0c
0c
0c
0c
0c
0c
fc
fc
ENDCHAR
STARTCHAR asciicircum
ENCODING 94
SWIDTH 1142 0
DWIDTH 16 0
BBX 10 6 2 14
BITMAP
0c00
0c00
3300
3300
c0c0
c0c0
ENDCHAR
STARTCHAR underscore
ENCODING 95
SWIDTH 1142 0
DWIDTH 16 0
BBX 16 2 0 -2
BITMAP
ffff
ffff
ENDCHAR
STARTCHAR grave
ENCODING 96
SWIDTH 1142 0
DWIDTH 16 0
BBX 6 6 2 14
BITMAP
c0
c0
30
30
0c
0c
ENDCHAR
STARTCHAR a
ENCODING 97
SWIDTH 1142 0
DWIDTH 16 0
BBX 12 14 2 0
BITMAP
7fe0
0010
0010
0010
7ff0
8010
8010
8010
8010
8010
8010
8010
8030
7fd0
ENDCHAR
STARTCHAR b
ENCODING 98
SWIDTH 1142 0
DWIDTH 16 0
BBX 12 20 2 0
BITMAP
8000
8000
8000
8000
8000
8000
9fe0
a010
c010
8010
8010
8010
8010
8010
8010
8010
8010
8010
8010
ffe0
ENDCHAR
STARTCHAR c
ENCODING 99
SWIDTH 1142 0
DWIDTH 16 0
BBX 12 14 2 0
BITMAP
7fe0
8010
8000
8000
8000
8000
8000
8000
8000
8000
8000
8000
8010
7fe0
ENDCHAR
STARTCHAR d
ENCODING 100
SWIDTH 1142 0
DWIDTH 16 0
BBX 12 20 2 0
BITMAP
0010
0010
0010
0010
0010
0010
7ff0
8010
8010
8010
8010
8010
8010
8010
8010
8010
8010
8010
8030
7fd0
ENDCHAR
STARTCHAR e
ENCODING 101
SWIDTH 1142 0
DWIDTH 16 0
BBX 12 14 2 0
BITMAP
3fc0
4020
8010
8010
8010
8010
8010
fff0
8000
8000
8000
8000
4000
3ff0
ENDCHAR
STARTCHAR f
ENCODING 102
SWIDTH 1142 0
DWIDTH 16 0
BBX 8 20 4 0
BITMAP
7f
80
80
80
80
80
80
80
ff
80
80
80
80
80
80
80
80
80
80
80
ENDCHAR
STARTCHAR g
ENCODING 103
SWIDTH 1142 0
DWIDTH 16 0
BBX 12 20 2 -6
BITMAP
3ff0
4010
8010
8010
8010
8010
8010
8010
8010
8010
8010
8030
8050
7fd0
0010
0010
0010
0010
0010
3fe0
ENDCHAR
STARTCHAR h
ENCODING 104
SWIDTH 1142 0
DWIDTH 16 0
BBX 12 20 2 0
BITMAP
8000
8000
8000
8000
8000
8000
9fe0
a010
c010
8010
8010
8010
8010
8010
8010
8010
8010
8010
8010
8010
ENDCHAR
STARTCHAR i
ENCODING 105
SWIDTH 1142 0
DWIDTH 16 0
BBX 10 20 2 0
BITMAP
0800
0800
0000
0000
0000
0000
f800
0800
0800
0800
0800
0800
0800
0800
0800
0800
0800
0800
0800
0fc0
ENDCHAR
STARTCHAR j
ENCODING 106
SWIDTH 1142 0
DWIDTH 16 0
BBX 7 26 2 -6
BITMAP
02
02
00
00
00
00
1e
02
02
02
02
02
02
02
02
02
02
02
02
02
02
02
02
02
02
fc
ENDCHAR
STARTCHAR k
ENCODING 107
SWIDTH 1142 0
DWIDTH 16 0
BBX 12 20 2 0
BITMAP
8000
8000
8000
8000
8000
8000
8000
8000
8040
8080
8100
8200
fc00
8400
8200
8100
8080
8040
8020
8010
ENDCHAR
STARTCHAR l
ENCODING 108
SWIDTH 1142 0
DWIDTH 16 0
BBX 10 20 4 0
BITMAP
f000
f000
3000
3000
3000
3000
3000
3000
3000
3000
3000
3000
3000
3000
3000
3000
3000
3000
0fc0
0fc0
ENDCHAR
STARTCHAR m
ENCODING 109
SWIDTH 1142 0
DWIDTH 16 0
BBX 14 14 0 0
BITMAP
fff0
fff0
c30c
c30c
c30c
c30c
c30c
c30c
c30c
c30c
c30c
c30c
c30c
c30c
ENDCHAR
STARTCHAR n
ENCODING 110
SWIDTH 1142 0
DWIDTH 16 0
BBX 12 14 2 0
BITMAP
ffc0
ffc0
c030
c030
c030
c030
c030
c030
c030
c030
c030
c030
c030
c030
ENDCHAR
STARTCHAR o
ENCODING 111
SWIDTH 1142 0
DWIDTH 16 0
BBX 12 14 2 0
BITMAP
3fc0
3fc0
c030
c030
c030
c030
c030
c030
c030
c030
c030
c030
3fc0
3fc0
ENDCHAR
STARTCHAR p
ENCODING 112
SWIDTH 1142 0
DWIDTH 16 0
BBX 12 20 2 -6
BITMAP
cfc0
cfc0
f030
f030
c030
c030
c030
c030
c030
c030
c030
c030
ffc0
ffc0
c000
c000
c000
c000
c000
c000
ENDCHAR
STARTCHAR q
ENCODING 113
SWIDTH 1142 0
DWIDTH 16 0
BBX 12 20 2 -6
BITMAP
3ff0
3ff0
c030
c030
c030
c030
c030
c030
c030
c030
c0f0
c0f0
3f30
3f30
0030
0030
0030
0030
0030
0030
ENDCHAR
STARTCHAR r
ENCODING 114
SWIDTH 1142 0
DWIDTH 16 0
BBX 12 14 2 0
BITMAP
cfc0
cfc0
f030
f030
c000
c000
c000
c000
c000
c000
c000
c000
c000
c000
ENDCHAR
STARTCHAR s
ENCODING 115
SWIDTH 1142 0
DWIDTH 16 0
BBX 12 14 2 0
BITMAP
3fc0
3fc0
c000
c000
c000
c000
3fc0
3fc0
0030
0030
0030
0030
ffc0
ffc0
ENDCHAR
STARTCHAR t
ENCODING 116
SWIDTH 1142 0
DWIDTH 16 0
BBX 8 20 4 0
BITMAP
30
30
30
30
30
30
ff
ff
30
30
30
30
30
30
30
30
30
30
0f
0f
ENDCHAR
STARTCHAR u
ENCODING 117
SWIDTH 1142 0
DWIDTH 16 0
BBX 12 14 2 0
BITMAP
c030
c030
c030
c030
c030
c030
c030
c030
c030
c030
c0f0
c0f0
3f30
3f30
ENDCHAR
STARTCHAR v
ENCODING 118
SWIDTH 1142 0
DWIDTH 16 0
BBX 12 14 2 0
BITMAP
c030
c030
c030
c030
c030
c030
30c0
30c0
30c0
30c0
0f00
0f00
0f00
0f00
ENDCHAR
STARTCHAR w
ENCODING 119
SWIDTH 1142 0
DWIDTH 16 0
BBX 14 14 0 0
BITMAP
c00c
c00c
c00c
c00c
c30c
c30c
c30c
c30c
cccc
cccc
3030
3030
3030
3030
ENDCHAR
STARTCHAR x
ENCODING 120
SWIDTH 1142 0
DWIDTH 16 0
BBX 12 14 2 0
BITMAP
c030
c030
c030
c030
30c0
30c0
0f00
0f00
30c0
30c0
c030
c030
c030
c030
ENDCHAR
STARTCHAR y
ENCODING 121
SWIDTH 1142 0
DWIDTH 16 0
BBX 12 20 2 -6
BITMAP
c030
c030
c030
c030
c030
c030
c030
c030
c030
c030
c0f0
c0f0
3f30
3f30
0030
0030
0030
0030
3fc0
3fc0
ENDCHAR
STARTCHAR z
ENCODING 122
SWIDTH 1142 0
DWIDTH 16 0
BBX 12 14 2 0
BITMAP
fff0
fff0
00c0
00c0
0300
0300
0c00
0c00
3000
3000
c000
c000
fff0
fff0
ENDCHAR
STARTCHAR braceleft
ENCODING 123
SWIDTH 1142 0
DWIDTH 16 0
BBX 14 24 0 -4
BITMAP
00fc
00fc
0300
0300
0300
0300
0300
0300
0300
0300
0300
0300
fc00
fc00
0300
0300
0300
0300
0300
0300
0300
0300
00fc
00fc
ENDCHAR
STARTCHAR bar
ENCODING 124
SWIDTH 1142 0
DWIDTH 16 0
BBX 1 24 7 -4
BITMAP
80
80
80
80
80
80
80
80
80
80
80
80
80
80
80
80
80
80
80
80
80
80
80
80
ENDCHAR
STARTCHAR braceright
ENCODING 125
SWIDTH 1142 0
DWIDTH 16 0
BBX 14 24 2 -4
BITMAP
fc00
fc00
0300
0300
0300
0300
0300
0300
0300
0300
0300
0300
00fc
00fc
0300
0300
0300
0300
0300
0300
0300
0300
fc00
fc00
ENDCHAR
STARTCHAR asciitilde
ENCODING 126
SWIDTH 1142 0
DWIDTH 16 0
BBX 14 6 0 6
BITMAP
3804
4404
8204
8104
8088
8070
ENDCHAR
STARTCHAR nbspace
ENCODING 160
SWIDTH 1142 0
DWIDTH 16 0
BBX 0 0 0 0
BITMAP
ENDCHAR
STARTCHAR exclamdown
ENCODING 161
SWIDTH 1142 0
DWIDTH 16 0
BBX 2 20 6 0
BITMAP
c0
c0
c0
c0
00
00
c0
c0
c0
c0
c0
c0
c0
c0
c0
c0
c0
c0
c0
c0
ENDCHAR
STARTCHAR cent
ENCODING 162
SWIDTH 1142 0
DWIDTH 16 0
BBX 14 22 0 -4
BITMAP
0300
0300
0300
0300
3ff0
3ff0
c30c
c30c
c300
c300
c300
c300
c300
c300
c30c
c30c
3ff0
3ff0
0300
0300
0300
0300
ENDCHAR
STARTCHAR sterling
ENCODING 163
SWIDTH 1142 0
DWIDTH 16 0
BBX 12 20 2 0
BITMAP
0f00
0f00
30c0
30c0
3000
3000
3000
3000
ff00
ff00
3000
3000
3000
3000
3000
3000
3030
3030
cfc0
cfc0
ENDCHAR
STARTCHAR currency
ENCODING 164
SWIDTH 1142 0
DWIDTH 16 0
BBX 14 14 0 0
BITMAP
c00c
c00c
3ff0
3ff0
3030
3030
3030
3030
3030
3030
3ff0
3ff0
c00c
c00c
ENDCHAR
STARTCHAR yen
ENCODING 165
SWIDTH 1142 0
DWIDTH 16 0
BBX 14 20 0 0
BITMAP
c00c
c00c
c00c
c00c
3030
3030
0cc0
0cc0
0300
0300
3ff0
3ff0
0300
0300
3ff0
3ff0
0300
0300
0300
0300
ENDCHAR
STARTCHAR brokenbar
ENCODING 166
SWIDTH 1142 0
DWIDTH 16 0
BBX 2 24 6 -4
BITMAP
c0
c0
c0
c0
c0
c0
c0
c0
c0
c0
00
00
00
00
c0
c0
c0
c0
c0
c0
c0
c0
c0
c0
ENDCHAR
STARTCHAR section
ENCODING 167
SWIDTH 1142 0
DWIDTH 16 0
BBX 10 24 2 -4
BITMAP
3f00
3f00
c0c0
c0c0
c000
c000
3c00
3c00
c300
c300
c0c0
c0c0
c0c0
c0c0
30c0
30c0
0f00
0f00
00c0
00c0
c0c0
c0c0
3f00
3f00
ENDCHAR
STARTCHAR dieresis
ENCODING 168
SWIDTH 1142 0
DWIDTH 16 0
BBX 8 4 4 16
BITMAP
c3
c3
c3
c3
ENDCHAR
STARTCHAR copyright
ENCODING 169
SWIDTH 1142 0
DWIDTH 16 0
BBX 16 18 0 0
BITMAP
0ff0
0ff0
300c
300c
c3c3
c3c3
cc33
cc33
cc03
cc03
cc33
cc33
c3c3
c3c3
300c
300c
0ff0
0ff0
ENDCHAR
STARTCHAR ordfeminine
ENCODING 170
SWIDTH 1142 0
DWIDTH 16 0
BBX 10 14 2 6
BITMAP
3f00
3f00
00c0
00c0
3fc0
3fc0
c0c0
c0c0
3fc0
3fc0
0000
0000
ffc0
ffc0
ENDCHAR
STARTCHAR guillemotleft
ENCODING 171
SWIDTH 1142 0
DWIDTH 16 0
BBX 14 14 0 0
BITMAP
030c
030c
0c30
0c30
30c0
30c0
c300
c300
30c0
30c0
0c30
0c30
030c
030c
ENDCHAR
STARTCHAR logicalnot
ENCODING 172
SWIDTH 1142 0
DWIDTH 16 0
BBX 12 8 2 4
BITMAP
fff0
fff0
0030
0030
0030
0030
0030
0030
ENDCHAR
STARTCHAR softhyphen
ENCODING 173
SWIDTH 1142 0
DWIDTH 16 0
BBX 8 2 4 6
BITMAP
ff
ff
ENDCHAR
STARTCHAR registered
ENCODING 174
SWIDTH 1142 0
DWIDTH 16 0
BBX 16 18 0 0
BITMAP
0ff0
0ff0
300c
300c
cfc3
cfc3
cc33
cc33
cfc3
cfc3
ccc3
ccc3
cc33
cc33
300c
300c
0ff0
0ff0
ENDCHAR
STARTCHAR macron
ENCODING 175
SWIDTH 1142 0
DWIDTH 16 0
BBX 12 2 2 18
BITMAP
fff0
fff0
ENDCHAR
STARTCHAR degree
ENCODING 176
SWIDTH 1142 0
DWIDTH 16 0
BBX 8 8 4 12
BITMAP
3c
3c
c3
c3
c3
c3
3c
3c
ENDCHAR
STARTCHAR plusminus
ENCODING 177
SWIDTH 1142 0
DWIDTH 16 0
BBX 10 14 2 0
BITMAP
0c00
0c00
0c00
0c00
ffc0
ffc0
0c00
0c00
0c00
0c00
0000
0000
ffc0
ffc0
ENDCHAR
STARTCHAR twosuperior
ENCODING 178
SWIDTH 1142 0
DWIDTH 16 0
BBX 8 10 4 10
BITMAP
3c
3c
c3
c3
0c
0c
30
30
ff
ff
ENDCHAR
STARTCHAR threesuperior
ENCODING 179
SWIDTH 1142 0
DWIDTH 16 0
BBX 8 10 4 10
BITMAP
fc
fc
03
03
3c
3c
03
03
fc
fc
ENDCHAR
STARTCHAR acute
ENCODING 180
SWIDTH 1142 0
DWIDTH 16 0
BBX 4 4 6 18
BITMAP
30
30
c0
c0
ENDCHAR
STARTCHAR mu
ENCODING 181
SWIDTH 1142 0
DWIDTH 16 0
BBX 12 20 2 -6
BITMAP
c030
c030
c030
c030
c030
c030
c030
c030
c030
c030
c0f0
c0f0
ff30
ff30
c000
c000
c000
c000
c000
c000
ENDCHAR
STARTCHAR paragraph
ENCODING 182
SWIDTH 1142 0
DWIDTH 16 0
BBX 14 20 0 0
BITMAP
3ffc
3ffc
ff0c
ff0c
ff0c
ff0c
ff0c
ff0c
ff0c
ff0c
3f0c
3f0c
030c
030c
030c
030c
030c
030c
030c
030c
ENDCHAR
STARTCHAR periodcentered
ENCODING 183
SWIDTH 1142 0
DWIDTH 16 0
BBX 4 4 4 6
BITMAP
f0
f0
f0
f0
ENDCHAR
STARTCHAR cedilla
ENCODING 184
SWIDTH 1142 0
DWIDTH 16 0
BBX 4 6 4 -6
BITMAP
30
30
30
30
c0
c0
ENDCHAR
STARTCHAR onesuperior
ENCODING 185
SWIDTH 1142 0
DWIDTH 16 0
BBX 6 10 4 10
BITMAP
30
30
f0
f0
30
30
30
30
fc
fc
ENDCHAR
STARTCHAR ordmasculine
ENCODING 186
SWIDTH 1142 0
DWIDTH 16 0
BBX 10 14 2 6
BITMAP
3f00
3f00
c0c0
c0c0
c0c0
c0c0
c0c0
c0c0
3f00
3f00
0000
0000
ffc0
ffc0
ENDCHAR
STARTCHAR guillemotright
ENCODING 187
SWIDTH 1142 0
DWIDTH 16 0
BBX 14 14 0 0
BITMAP
c300
c300
30c0
30c0
0c30
0c30
030c
030c
0c30
0c30
30c0
30c0
c300
c300
ENDCHAR
STARTCHAR onequarter
ENCODING 188
SWIDTH 1142 0
DWIDTH 16 0
BBX 14 26 0 -4
BITMAP
0c00
0c00
3c00
3c00
0c00
0c00
0c0c
0c0c
0c30
0c30
00c0
00c0
0300
0300
0c0c
0c0c
303c
303c
c0cc
c0cc
03fc
03fc
000c
000c
000c
000c
ENDCHAR
STARTCHAR onehalf
ENCODING 189
SWIDTH 1142 0
DWIDTH 16 0
BBX 14 26 0 -4
BITMAP
0c00
0c00
3c00
3c00
0c00
0c00
0c0c
0c0c
0c30
0c30
00c0
00c0
0300
0300
0c00
0c00
30f0
30f0
c30c
c30c
0030
0030
00c0
00c0
03fc
03fc
ENDCHAR
STARTCHAR threequarters
ENCODING 190
SWIDTH 1142 0
DWIDTH 16 0
BBX 14 26 0 -4
BITMAP
fc00
fc00
0300
0300
3c00
3c00
030c
030c
fc30
fc30
00c0
00c0
0300
0300
0c0c
0c0c
303c
303c
c0cc
c0cc
03fc
03fc
000c
000c
000c
000c
ENDCHAR
STARTCHAR question
ENCODING 191
SWIDTH 1142 0
DWIDTH 16 0
BBX 12 20 2 0
BITMAP
0300
0300
0300
0300
0000
0000
0300
0300
0c00
0c00
3000
3000
c000
c000
c000
c000
c030
c030
3fc0
3fc0
ENDCHAR
STARTCHAR Agrave
ENCODING 192
SWIDTH 1142 0
DWIDTH 16 0
BBX 12 22 2 0
BITMAP
0c00
0c00
0300
0300
3fc0
3fc0
c030
c030
c030
c030
c030
c030
fff0
fff0
c030
c030
c030
c030
c030
c030
c030
c030
ENDCHAR
STARTCHAR Aacute
ENCODING 193
SWIDTH 1142 0
DWIDTH 16 0
BBX 12 22 2 0
BITMAP
0300
0300
0c00
0c00
3fc0
3fc0
c030
c030
c030
c030
c030
c030
fff0
fff0
c030
c030
c030
c030
c030
c030
c030
c030
ENDCHAR
STARTCHAR Acircumflex
ENCODING 194
SWIDTH 1142 0
DWIDTH 16 0
BBX 12 22 2 0
BITMAP
0f00
0f00
30c0
30c0
0000
0000
3fc0
3fc0
c030
c030
c030
c030
c030
c030
fff0
fff0
c030
c030
c030
c030
c030
c030
ENDCHAR
STARTCHAR Atilde
ENCODING 195
SWIDTH 1142 0
DWIDTH 16 0
BBX 12 22 2 0
BITMAP
3c30
3c30
c3c0
c3c0
0000
0000
3fc0
3fc0
c030
c030
c030
c030
c030
c030
fff0
fff0
c030
c030
c030
c030
c030
c030
ENDCHAR
STARTCHAR Adieresis
ENCODING 196
SWIDTH 1142 0
DWIDTH 16 0
BBX 12 22 2 0
BITMAP
30c0
30c0
30c0
30c0
0000
0000
3fc0
3fc0
c030
c030
c030
c030
c030
c030
fff0
fff0
c030
c030
c030
c030
c030
c030
ENDCHAR
STARTCHAR Aring
ENCODING 197
SWIDTH 1142 0
DWIDTH 16 0
BBX 12 22 2 0
BITMAP
0f00
0f00
30c0
30c0
0f00
0f00
3fc0
3fc0
c030
c030
c030
c030
c030
c030
fff0
fff0
c030
c030
c030
c030
c030
c030
ENDCHAR
STARTCHAR AE
ENCODING 198
SWIDTH 1142 0
DWIDTH 16 0
BBX 14 18 0 0
BITMAP
3ffc
3ffc
c300
c300
c300
c300
c300
c300
fff0
fff0
c300
c300
c300
c300
c300
c300
c3fc
c3fc
ENDCHAR
STARTCHAR Ccedilla
ENCODING 199
SWIDTH 1142 0
DWIDTH 16 0
BBX 12 22 2 -4
BITMAP
3fc0
3fc0
c030
c030
c000
c000
c000
c000
c000
c000
c000
c000
c000
c000
c030
c030
3fc0
3fc0
0c00
0c00
3000
3000
ENDCHAR
STARTCHAR Egrave
ENCODING 200
SWIDTH 1142 0
DWIDTH 16 0
BBX 12 22 2 0
BITMAP
0c00
0c00
0300
0300
fff0
fff0
c000
c000
c000
c000
c000
c000
ff00
ff00
c000
c000
c000
c000
c000
c000
fff0
fff0
ENDCHAR
STARTCHAR Eacute
ENCODING 201
SWIDTH 1142 0
DWIDTH 16 0
BBX 12 22 2 0
BITMAP
0300
0300
0c00
0c00
fff0
fff0
c000
c000
c000
c000
c000
c000
ff00
ff00
c000
c000
c000
c000
c000
c000
fff0
fff0
ENDCHAR
STARTCHAR Ecircumflex
ENCODING 202
SWIDTH 1142 0
DWIDTH 16 0
BBX 12 22 2 0
BITMAP
0f00
0f00
30c0
30c0
0000
0000
fff0
fff0
c000
c000
c000
c000
ff00
ff00
c000
c000
c000
c000
c000
c000
fff0
fff0
ENDCHAR
STARTCHAR Edieresis
ENCODING 203
SWIDTH 1142 0
DWIDTH 16 0
BBX 12 22 2 0
BITMAP
30c0
30c0
30c0
30c0
0000
0000
fff0
fff0
c000
c000
c000
c000
ff00
ff00
c000
c000
c000
c000
c000
c000
fff0
fff0
ENDCHAR
STARTCHAR Igrave
ENCODING 204
SWIDTH 1142 0
DWIDTH 16 0
BBX 6 22 4 0
BITMAP
c0
c0
30
30
00
00
fc
fc
30
30
30
30
30
30
30
30
30
30
30
30
fc
fc
ENDCHAR
STARTCHAR Iacute
ENCODING 205
SWIDTH 1142 0
DWIDTH 16 0
BBX 6 22 4 0
BITMAP
0c
0c
30
30
00
00
fc
fc
30
30
30
30
30
30
30
30
30
30
30
30
fc
fc
ENDCHAR
STARTCHAR Icircumflex
ENCODING 206
SWIDTH 1142 0
DWIDTH 16 0
BBX 8 22 4 0
BITMAP
3c
3c
c3
c3
00
00
fc
fc
30
30
30
30
30
30
30
30
30
30
30
30
fc
fc
ENDCHAR
STARTCHAR Idieresis
ENCODING 207
SWIDTH 1142 0
DWIDTH 16 0
BBX 10 22 2 0
BITMAP
c0c0
c0c0
c0c0
c0c0
0000
0000
3f00
3f00
0c00
0c00
0c00
0c00
0c00
0c00
0c00
0c00
0c00
0c00
0c00
0c00
3f00
3f00
ENDCHAR
STARTCHAR Eth
ENCODING 208
SWIDTH 1142 0
DWIDTH 16 0
BBX 14 18 0 0
BITMAP
3fc0
3fc0
3030
3030
300c
300c
300c
300c
ff0c
ff0c
300c
300c
300c
300c
3030
3030
3fc0
3fc0
ENDCHAR
STARTCHAR Ntilde
ENCODING 209
SWIDTH 1142 0
DWIDTH 16 0
BBX 12 22 2 0
BITMAP
3c30
3c30
c3c0
c3c0
0000
0000
f030
f030
f030
f030
cc30
cc30
cc30
cc30
c330
c330
c330
c330
c0f0
c0f0
c0f0
c0f0
ENDCHAR
STARTCHAR Ograve
ENCODING 210
SWIDTH 1142 0
DWIDTH 16 0
BBX 12 22 2 0
BITMAP
0c00
0c00
0300
0300
3fc0
3fc0
c030
c030
c030
c030
c030
c030
c030
c030
c030
c030
c030
c030
c030
c030
3fc0
3fc0
ENDCHAR
STARTCHAR Oacute
ENCODING 211
SWIDTH 1142 0
DWIDTH 16 0
BBX 12 22 2 0
BITMAP
0300
0300
0c00
0c00
3fc0
3fc0
c030
c030
c030
c030
c030
c030
c030
c030
c030
c030
c030
c030
c030
c030
3fc0
3fc0
ENDCHAR
STARTCHAR Ocircumflex
ENCODING 212
SWIDTH 1142 0
DWIDTH 16 0
BBX 12 22 2 0
BITMAP
0f00
0f00
30c0
30c0
0000
0000
3fc0
3fc0
c030
c030
c030
c030
c030
c030
c030
c030
c030
c030
c030
c030
3fc0
3fc0
ENDCHAR
STARTCHAR Otilde
ENCODING 213
SWIDTH 1142 0
DWIDTH 16 0
BBX 12 22 2 0
BITMAP
3c30
3c30
c3c0
c3c0
0000
0000
3fc0
3fc0
c030
c030
c030
c030
c030
c030
c030
c030
c030
c030
c030
c030
3fc0
3fc0
ENDCHAR
STARTCHAR Odieresis
ENCODING 214
SWIDTH 1142 0
DWIDTH 16 0
BBX 12 22 2 0
BITMAP
30c0
30c0
30c0
30c0
0000
0000
3fc0
3fc0
c030
c030
c030
c030
c030
c030
c030
c030
c030
c030
c030
c030
3fc0
3fc0
ENDCHAR
STARTCHAR multiply
ENCODING 215
SWIDTH 1142 0
DWIDTH 16 0
BBX 12 10 2 2
BITMAP
c030
c030
30c0
30c0
0f00
0f00
30c0
30c0
c030
c030
ENDCHAR
STARTCHAR Oslash
ENCODING 216
SWIDTH 1142 0
DWIDTH 16 0
BBX 12 24 2 -2
BITMAP
0030
0030
3f30
3f30
c0c0
c0c0
c0f0
c0f0
c330
c330
c330
c330
cc30
cc30
cc30
cc30
f030
f030
3030
3030
cfc0
cfc0
c000
c000
ENDCHAR
STARTCHAR Ugrave
ENCODING 217
SWIDTH 1142 0
DWIDTH 16 0
BBX 12 22 2 0
BITMAP
0c00
0c00
0300
0300
c030
c030
c030
c030
c030
c030
c030
c030
c030
c030
c030
c030
c030
c030
c030
c030
3fc0
3fc0
ENDCHAR
STARTCHAR Uacute
ENCODING 218
SWIDTH 1142 0
DWIDTH 16 0
BBX 12 22 2 0
BITMAP
0300
0300
0c00
0c00
c030
c030
c030
c030
c030
c030
c030
c030
c030
c030
c030
c030
c030
c030
c030
c030
3fc0
3fc0
ENDCHAR
STARTCHAR Ucircumflex
ENCODING 219
SWIDTH 1142 0
DWIDTH 16 0
BBX 12 22 2 0
BITMAP
0f00
0f00
30c0
30c0
0000
0000
c030
c030
c030
c030
c030
c030
c030
c030
c030
c030
c030
c030
c030
c030
3fc0
3fc0
ENDCHAR
STARTCHAR Udieresis
ENCODING 220
SWIDTH 1142 0
DWIDTH 16 0
BBX 12 22 2 0
BITMAP
30c0
30c0
30c0
30c0
0000
0000
c030
c030
c030
c030
c030
c030
c030
c030
c030
c030
c030
c030
c030
c030
3fc0
3fc0
ENDCHAR
STARTCHAR Yacute
ENCODING 221
SWIDTH 1142 0
DWIDTH 16 0
BBX 14 22 0 0
BITMAP
00c0
00c0
0300
0300
c00c
c00c
c00c
c00c
3030
3030
3030
3030
0cc0
0cc0
0300
0300
0300
0300
0300
0300
0300
0300
ENDCHAR
STARTCHAR Thorn
ENCODING 222
SWIDTH 1142 0
DWIDTH 16 0
BBX 12 20 2 0
BITMAP
c000
c000
c000
c000
ffc0
ffc0
c030
c030
c030
c030
c030
c030
c030
c030
ffc0
ffc0
c000
c000
c000
c000
ENDCHAR
STARTCHAR germandbls
ENCODING 223
SWIDTH 1142 0
DWIDTH 16 0
BBX 12 20 2 0
BITMAP
3f00
3f00
c0c0
c0c0
c0c0
c0c0
c300
c300
ffc0
ffc0
c030
c030
c030
c030
c030
c030
f030
f030
cfc0
cfc0
ENDCHAR
STARTCHAR agrave
ENCODING 224
SWIDTH 1142 0
DWIDTH 16 0
BBX 12 20 2 0
BITMAP
0c00
0c00
0300
0300
0000
0000
3fc0
3fc0
0030
0030
3ff0
3ff0
c030
c030
c030
c030
c0f0
c0f0
3f30
3f30
ENDCHAR
STARTCHAR aacute
ENCODING 225
SWIDTH 1142 0
DWIDTH 16 0
BBX 12 20 2 0
BITMAP
0300
0300
0c00
0c00
0000
0000
3fc0
3fc0
0030
0030
3ff0
3ff0
c030
c030
c030
c030
c0f0
c0f0
3f30
3f30
ENDCHAR
STARTCHAR acircumflex
ENCODING 226
SWIDTH 1142 0
DWIDTH 16 0
BBX 12 20 2 0
BITMAP
0f00
0f00
30c0
30c0
0000
0000
3fc0
3fc0
0030
0030
3ff0
3ff0
c030
c030
c030
c030
c0f0
c0f0
3f30
3f30
ENDCHAR
STARTCHAR atilde
ENCODING 227
SWIDTH 1142 0
DWIDTH 16 0
BBX 12 20 2 0
BITMAP
3c30
3c30
c3c0
c3c0
0000
0000
3fc0
3fc0
0030
0030
3ff0
3ff0
c030
c030
c030
c030
c0f0
c0f0
3f30
3f30
ENDCHAR
STARTCHAR adieresis
ENCODING 228
SWIDTH 1142 0
DWIDTH 16 0
BBX 12 20 2 0
BITMAP
30c0
30c0
30c0
30c0
0000
0000
3fc0
3fc0
0030
0030
3ff0
3ff0
c030
c030
c030
c030
c0f0
c0f0
3f30
3f30
ENDCHAR
STARTCHAR aring
ENCODING 229
SWIDTH 1142 0
DWIDTH 16 0
BBX 12 20 2 0
BITMAP
0f00
0f00
30c0
30c0
0f00
0f00
3fc0
3fc0
0030
0030
3ff0
3ff0
c030
c030
c030
c030
c0f0
c0f0
3f30
3f30
ENDCHAR
STARTCHAR ae
ENCODING 230
SWIDTH 1142 0
DWIDTH 16 0
BBX 14 14 0 0
BITMAP
3cf0
3cf0
030c
030c
3f0c
3f0c
c3fc
c3fc
c300
c300
c300
c300
3cf0
3cf0
ENDCHAR
STARTCHAR ccedilla
ENCODING 231
SWIDTH 1142 0
DWIDTH 16 0
BBX 12 18 2 -4
BITMAP
3fc0
3fc0
c030
c030
c000
c000
c000
c000
c000
c000
c030
c030
3fc0
3fc0
0c00
0c00
3000
3000
ENDCHAR
STARTCHAR egrave
ENCODING 232
SWIDTH 1142 0
DWIDTH 16 0
BBX 12 20 2 0
BITMAP
0c00
0c00
0300
0300
0000
0000
3fc0
3fc0
c030
c030
c030
c030
fff0
fff0
c000
c000
c000
c000
3ff0
3ff0
ENDCHAR
STARTCHAR eacute
ENCODING 233
SWIDTH 1142 0
DWIDTH 16 0
BBX 12 20 2 0
BITMAP
0300
0300
0c00
0c00
0000
0000
3fc0
3fc0
c030
c030
c030
c030
fff0
fff0
c000
c000
c000
c000
3ff0
3ff0
ENDCHAR
STARTCHAR ecircumflex
ENCODING 234
SWIDTH 1142 0
DWIDTH 16 0
BBX 12 20 2 0
BITMAP
0f00
0f00
30c0
30c0
0000
0000
3fc0
3fc0
c030
c030
c030
c030
fff0
fff0
c000
c000
c000
c000
3ff0
3ff0
ENDCHAR
STARTCHAR edieresis
ENCODING 235
SWIDTH 1142 0
DWIDTH 16 0
BBX 12 20 2 0
BITMAP
30c0
30c0
30c0
30c0
0000
0000
3fc0
3fc0
c030
c030
c030
c030
fff0
fff0
c000
c000
c000
c000
3ff0
3ff0
ENDCHAR
STARTCHAR igrave
ENCODING 236
SWIDTH 1142 0
DWIDTH 16 0
BBX 10 20 2 0
BITMAP
3000
3000
0c00
0c00
0000
0000
fc00
fc00
0c00
0c00
0c00
0c00
0c00
0c00
0c00
0c00
0c00
0c00
0fc0
0fc0
ENDCHAR
STARTCHAR iacute
ENCODING 237
SWIDTH 1142 0
DWIDTH 16 0
BBX 10 20 2 0
BITMAP
0300
0300
0c00
0c00
0000
0000
fc00
fc00
0c00
0c00
0c00
0c00
0c00
0c00
0c00
0c00
0c00
0c00
0fc0
0fc0
ENDCHAR
STARTCHAR icircumflex
ENCODING 238
SWIDTH 1142 0
DWIDTH 16 0
BBX 10 20 2 0
BITMAP
3c00
3c00
c300
c300
0000
0000
fc00
fc00
0c00
0c00
0c00
0c00
0c00
0c00
0c00
0c00
0c00
0c00
0fc0
0fc0
ENDCHAR
STARTCHAR idieresis
ENCODING 239
SWIDTH 1142 0
DWIDTH 16 0
BBX 10 20 2 0
BITMAP
c300
c300
c300
c300
0000
0000
fc00
fc00
0c00
0c00
0c00
0c00
0c00
0c00
0c00
0c00
0c00
0c00
0fc0
0fc0
ENDCHAR
STARTCHAR eth
ENCODING 240
SWIDTH 1142 0
DWIDTH 16 0
BBX 12 20 2 0
BITMAP
3300
3300
0c00
0c00
3300
3300
3fc0
3fc0
c030
c030
c030
c030
c030
c030
c030
c030
c030
c030
3fc0
3fc0
ENDCHAR
STARTCHAR ntilde
ENCODING 241
SWIDTH 1142 0
DWIDTH 16 0
BBX 12 20 2 0
BITMAP
3c30
3c30
c3c0
c3c0
0000
0000
ffc0
ffc0
c030
c030
c030
c030
c030
c030
c030
c030
c030
c030
c030
c030
ENDCHAR
STARTCHAR ograve
ENCODING 242
SWIDTH 1142 0
DWIDTH 16 0
BBX 12 20 2 0
BITMAP
0c00
0c00
0300
0300
0000
0000
3fc0
3fc0
c030
c030
c030
c030
c030
c030
c030
c030
c030
c030
3fc0
3fc0
ENDCHAR
STARTCHAR oacute
ENCODING 243
SWIDTH 1142 0
DWIDTH 16 0
BBX 12 20 2 0
BITMAP
0300
0300
0c00
0c00
0000
0000
3fc0
3fc0
c030
c030
c030
c030
c030
c030
c030
c030
c030
c030
3fc0
3fc0
ENDCHAR
STARTCHAR ocircumflex
ENCODING 244
SWIDTH 1142 0
DWIDTH 16 0
BBX 12 20 2 0
BITMAP
0f00
0f00
30c0
30c0
0000
0000
3fc0
3fc0
c030
c030
c030
c030
c030
c030
c030
c030
c030
c030
3fc0
3fc0
ENDCHAR
STARTCHAR otilde
ENCODING 245
SWIDTH 1142 0
DWIDTH 16 0
BBX 12 20 2 0
BITMAP
3c30
3c30
c3c0
c3c0
0000
0000
3fc0
3fc0
c030
c030
c030
c030
c030
c030
c030
c030
c030
c030
3fc0
3fc0
ENDCHAR
STARTCHAR odieresis
ENCODING 246
SWIDTH 1142 0
DWIDTH 16 0
BBX 12 20 2 0
BITMAP
30c0
30c0
30c0
30c0
0000
0000
3fc0
3fc0
c030
c030
c030
c030
c030
c030
c030
c030
c030
c030
3fc0
3fc0
ENDCHAR
STARTCHAR divide
ENCODING 247
SWIDTH 1142 0
DWIDTH 16 0
BBX 10 14 2 0
BITMAP
0c00
0c00
0c00
0c00
0000
0000
ffc0
ffc0
0000
0000
0c00
0c00
0c00
0c00
ENDCHAR
STARTCHAR oslash
ENCODING 248
SWIDTH 1142 0
DWIDTH 16 0
BBX 14 16 0 0
BITMAP
000c
000c
0ff0
0ff0
303c
303c
30cc
30cc
330c
330c
3c0c
3c0c
300c
300c
cff0
cff0
ENDCHAR
STARTCHAR ugrave
ENCODING 249
SWIDTH 1142 0
DWIDTH 16 0
BBX 12 20 2 0
BITMAP
0c00
0c00
0300
0300
0000
0000
c030
c030
c030
c030
c030
c030
c030
c030
c030
c030
c0f0
c0f0
3f30
3f30
ENDCHAR
STARTCHAR uacute
ENCODING 250
SWIDTH 1142 0
DWIDTH 16 0
BBX 12 20 2 0
BITMAP
0300
0300
0c00
0c00
0000
0000
c030
c030
c030
c030
c030
c030
c030
c030
c030
c030
c0f0
c0f0
3f30
3f30
ENDCHAR
STARTCHAR ucircumflex
ENCODING 251
SWIDTH 1142 0
DWIDTH 16 0
BBX 12 20 2 0
BITMAP
0f00
0f00
30c0
30c0
0000
0000
c030
c030
c030
c030
c030
c030
c030
c030
c030
c030
c0f0
c0f0
3f30
3f30
ENDCHAR
STARTCHAR udieresis
ENCODING 252
SWIDTH 1142 0
DWIDTH 16 0
BBX 12 20 2 0
BITMAP
30c0
30c0
30c0
30c0
0000
0000
c030
c030
c030
c030
c030
c030
c030
c030
c030
c030
c0f0
c0f0
3f30
3f30
ENDCHAR
STARTCHAR yacute
ENCODING 253
SWIDTH 1142 0
DWIDTH 16 0
BBX 12 26 2 -6
BITMAP
0300
0300
0c00
0c00
0000
0000
c030
c030
c030
c030
c030
c030
c030
c030
c030
c030
c0f0
c0f0
3f30
3f30
0030
0030
0030
0030
3fc0
3fc0
ENDCHAR
STARTCHAR thorn
ENCODING 254
SWIDTH 1142 0
DWIDTH 16 0
BBX 12 24 2 -4
BITMAP
c000
c000
c000
c000
c000
c000
ffc0
ffc0
c030
c030
c030
c030
c030
c030
c030
c030
c030
c030
ffc0
ffc0
c000
c000
c000
c000
ENDCHAR
STARTCHAR ydieresis
ENCODING 255
SWIDTH 1142 0
DWIDTH 16 0
BBX 12 26 2 -6
BITMAP
30c0
30c0
30c0
30c0
0000
0000
c030
c030
c030
c030
c030
c030
c030
c030
c030
c030
c0f0
c0f0
3f30
3f30
0030
0030
0030
0030
3fc0
3fc0
ENDCHAR
ENDFONT
